<svg id="Слой_1" data-name="Слой 1" xmlns="http://www.w3.org/2000/svg" viewBox="0 0 55.24 36.04"><defs><style>.cls-1{fill:#353533;}</style></defs><path class="cls-1" d="M97.82,273.12a45.94,45.94,0,0,1-3.68,12.3,51.26,51.26,0,0,1-5.89,10.29Q85,300,83.05,300q-2.43,0-6.92-3a.7.7,0,0,1-.34-.57q0-.78.9-.78a1.07,1.07,0,0,1,.49.12,8.42,8.42,0,0,0,4.08,1.28q3.06.15,7.85-9t5.49-16.12q.25-2.28-2.45-3.38a2.45,2.45,0,0,0-1.1-.2,23.18,23.18,0,0,0-9.15,3.43q-2.31,5.5-4.67,13A133.05,133.05,0,0,0,73.5,299c-.16.82-.5,1.23-1,1.23a1.82,1.82,0,0,1-.68-.17,7.09,7.09,0,0,1-1.67-1.08,2.15,2.15,0,0,1-.54-1.55,22.52,22.52,0,0,1,.66-4.93c.11-.48.29-.71.52-.71a5.06,5.06,0,0,1,1.69,1.13q3.33-11.37,6.33-19.46A42.51,42.51,0,0,0,70.34,280a2.56,2.56,0,0,0-.69,1.77,4.65,4.65,0,0,0,.59,2.06,6.48,6.48,0,0,1,.59,1.33c0,.27-.19.41-.57.41a.94.94,0,0,1-.73-.27q-3.07-3.6-3.07-5c0-1,.66-2,2-3.21a72.37,72.37,0,0,1,12-8.3c.86-2,1.49-3,1.89-3s.9.44,1.81,1.33l2.7-1.23a4.85,4.85,0,0,1,1.84-.49,6.4,6.4,0,0,1,3.17,1.32.45.45,0,0,1,.32-.09q1.36,0,4.19,2.55a4.06,4.06,0,0,1,1.52,3A6.2,6.2,0,0,1,97.82,273.12Z" transform="translate(-66.46 -264.78)"/><path class="cls-1" d="M114.14,291.67c0,3-1.51,5.34-4.51,7.14a3.84,3.84,0,0,1-3.37,2c-2.43,0-5.15-1.12-8.14-3.27a18.23,18.23,0,0,1-5.33-5.3,9.43,9.43,0,0,1-1.4-3,2.56,2.56,0,0,1,1.11-1.72,3,3,0,0,1,1.62-.91c.37,0,.56.25.56.74a3.23,3.23,0,0,1-.12.78,14.7,14.7,0,0,0,5.5,6.58c2.79,2,5.33,3,7.6,3q3,0,3-4.12,0-2.26-3.52-9t-3.52-9.68a5.68,5.68,0,0,1,1.08-3.41,15.54,15.54,0,0,1,3.19-3,1.38,1.38,0,0,1,.83-.32q.66,0,.66.57a1.14,1.14,0,0,1-.44.81,5.76,5.76,0,0,0-1.89,4.36q0,2.88,3.54,9.47T114.14,291.67Zm7.34-22.52a21,21,0,0,1-2.6,5.84c-.5.73-1,1.1-1.4,1.1a5.31,5.31,0,0,1-2.24-1c-.32-.21-.49-.44-.49-.66s.29-.59.86-.74.91-.88,1.45-2.23a9,9,0,0,0,.76-3.05c0-.76-.3-1.15-.91-1.15a4,4,0,0,0-.81.1,29.66,29.66,0,0,0-4.12,1.3,2.15,2.15,0,0,1-.66.12c-.49,0-.74-.16-.74-.49s.26-.59.76-.83a45.16,45.16,0,0,1,5.42-2.31,4.37,4.37,0,0,1,1.23-.32c.38,0,.87.52,1.47,1.57a9.24,9.24,0,0,1,1.7.62,1,1,0,0,1,.54,1A4.66,4.66,0,0,1,121.48,269.15Z" transform="translate(-66.46 -264.78)"/></svg>