<svg id="Слой_1" data-name="Слой 1" xmlns="http://www.w3.org/2000/svg" xmlns:xlink="http://www.w3.org/1999/xlink" viewBox="0 0 206.07 69.64"><defs><style>.cls-1,.cls-10,.cls-11,.cls-2,.cls-3,.cls-4,.cls-5,.cls-6,.cls-7,.cls-8,.cls-9{opacity:0.5;}.cls-1{fill:url(#Безымянный_градиент);}.cls-2{fill:url(#Безымянный_градиент-2);}.cls-3{fill:url(#Безымянный_градиент-3);}.cls-4{fill:url(#Безымянный_градиент-4);}.cls-5{fill:url(#Безымянный_градиент-5);}.cls-6{fill:url(#Безымянный_градиент-6);}.cls-7{fill:url(#Безымянный_градиент-7);}.cls-8{fill:url(#Безымянный_градиент-8);}.cls-9{fill:url(#Безымянный_градиент-9);}.cls-10{fill:url(#Безымянный_градиент-10);}.cls-11{fill:url(#Безымянный_градиент-11);}.cls-12{fill:#353533;}</style><linearGradient id="Безымянный_градиент" x1="68.9" y1="286.24" x2="100.33" y2="286.24" gradientUnits="userSpaceOnUse"><stop offset="0" stop-color="#fff"/><stop offset="1"/></linearGradient><linearGradient id="Безымянный_градиент-2" x1="98.59" y1="288.92" x2="110.37" y2="288.92" xlink:href="#Безымянный_градиент"/><linearGradient id="Безымянный_градиент-3" x1="96.57" y1="300.37" x2="126.1" y2="300.37" xlink:href="#Безымянный_градиент"/><linearGradient id="Безымянный_градиент-4" x1="127.26" y1="285.84" x2="139.04" y2="285.84" xlink:href="#Безымянный_градиент"/><linearGradient id="Безымянный_градиент-5" x1="138.35" y1="284.07" x2="152.39" y2="284.07" xlink:href="#Безымянный_градиент"/><linearGradient id="Безымянный_градиент-6" x1="148.04" y1="289.91" x2="166.9" y2="289.91" xlink:href="#Безымянный_градиент"/><linearGradient id="Безымянный_градиент-7" x1="169.59" y1="279.64" x2="189.02" y2="279.64" xlink:href="#Безымянный_градиент"/><linearGradient id="Безымянный_градиент-8" x1="188.36" y1="283.5" x2="218.66" y2="283.5" xlink:href="#Безымянный_градиент"/><linearGradient id="Безымянный_градиент-9" x1="215.67" y1="279.83" x2="235.1" y2="279.83" xlink:href="#Безымянный_градиент"/><linearGradient id="Безымянный_градиент-10" x1="235.83" y1="290.03" x2="251.96" y2="290.03" xlink:href="#Безымянный_градиент"/><linearGradient id="Безымянный_градиент-11" x1="249.12" y1="298.08" x2="272.53" y2="298.08" xlink:href="#Безымянный_градиент"/></defs><path class="cls-1" d="M100.26,276.56a46,46,0,0,1-3.68,12.29,51.26,51.26,0,0,1-5.89,10.29c-2.16,2.86-3.89,4.29-5.2,4.31q-2.43,0-6.92-3a.69.69,0,0,1-.35-.56c0-.53.31-.79.91-.79a1.07,1.07,0,0,1,.49.12,8.42,8.42,0,0,0,4.08,1.28q3.06.15,7.85-9T97,275.35q.25-2.28-2.45-3.38a2.59,2.59,0,0,0-1.1-.2,23.15,23.15,0,0,0-9.16,3.44q-2.3,5.49-4.66,13a131.29,131.29,0,0,0-3.73,14.18c-.16.82-.5,1.23-1,1.23a1.82,1.82,0,0,1-.68-.17,6.58,6.58,0,0,1-1.67-1.08,2.15,2.15,0,0,1-.54-1.55,22.59,22.59,0,0,1,.66-4.93c.11-.47.29-.71.52-.71a5.25,5.25,0,0,1,1.69,1.13q3.33-11.35,6.33-19.46a42.15,42.15,0,0,0-8.44,6.63,2.52,2.52,0,0,0-.69,1.76,4.62,4.62,0,0,0,.59,2.06,6.48,6.48,0,0,1,.59,1.33q0,.42-.57.42a.94.94,0,0,1-.73-.27q-3.07-3.61-3.07-5c0-1,.65-2,2-3.22a71.81,71.81,0,0,1,12-8.29c.86-2,1.49-3.05,1.89-3.05s.9.45,1.81,1.33l2.7-1.23a5,5,0,0,1,1.84-.49,6.34,6.34,0,0,1,3.17,1.33.41.41,0,0,1,.32-.1q1.36,0,4.19,2.55a4.06,4.06,0,0,1,1.52,3A6.43,6.43,0,0,1,100.26,276.56Z" transform="translate(-66.46 -252.33)"/><path class="cls-2" d="M106.52,286.2a100,100,0,0,1-3.07,11,17.71,17.71,0,0,0,2-2.33.48.48,0,0,1,.35-.23q.39,0,.09.69c-.08.18-.77,1.3-2.06,3.36a24.68,24.68,0,0,0-2.16,4.17.8.8,0,0,1-.81.57,3.56,3.56,0,0,1-1.59-.57c-.43-.22-.64-.4-.64-.51a1.93,1.93,0,0,1,.27-.64,40.55,40.55,0,0,0,2.94-7.8,42.43,42.43,0,0,0,1.75-7.88c0-.73,0-1.1-.22-1.1s-.41.18-.79.54L101,286.91c-.54.49-.81.52-.81.07a.88.88,0,0,1,.22-.49,35.29,35.29,0,0,1,2.45-3.06,1.11,1.11,0,0,1,.76-.42,2.36,2.36,0,0,1,1.16.54,10.34,10.34,0,0,1,1.25.37,1.35,1.35,0,0,1,.56,1.27A6.49,6.49,0,0,1,106.52,286.2ZM110,275.45a.84.84,0,0,1,.39.67c0,.47-.71,1.21-2.11,2.2a3.45,3.45,0,0,1-2.7.69,3.28,3.28,0,0,1-1.28-.54,1,1,0,0,1-.25-.31.27.27,0,0,1,0-.25c.05-.07.15-.09.29-.05a29.52,29.52,0,0,0,3-2.82c.38-.43.65-.64.81-.64A5.12,5.12,0,0,1,110,275.45Z" transform="translate(-66.46 -252.33)"/><path class="cls-3" d="M126,282.46q-7.53,39.09-19.58,39.06-4.34,0-9.4-4.78a1.27,1.27,0,0,1-.46-.91c0-.48.22-.71.66-.71a1,1,0,0,1,.66.27q4,3.41,7.17,3.41,10.11,0,16.85-29.69a51.54,51.54,0,0,1-7.14,10.08,3.3,3.3,0,0,1-2.18,1.25,3.87,3.87,0,0,1-2.18-1,3.75,3.75,0,0,1-2.24-3.78,21.39,21.39,0,0,1,2.48-8,24.67,24.67,0,0,1,4.76-7,3.92,3.92,0,0,1,2.53-1.33,3.24,3.24,0,0,1,1.84.74l2,1.74a.87.87,0,0,1,.37.64c0,.29-.2.44-.59.44a1.94,1.94,0,0,1-.83-.22,3.1,3.1,0,0,0-1.45-.39,2.76,2.76,0,0,0-1.87.73,19.52,19.52,0,0,0-3.75,5.11,22,22,0,0,0-2.63,7.06,11,11,0,0,0-.12,1.5c0,1.21.33,1.81,1,1.81a2.14,2.14,0,0,0,1.4-.66,29.71,29.71,0,0,0,5.79-7.24,36,36,0,0,0,3.81-8,8.35,8.35,0,0,0,.41-2.48c0-.62.15-.93.44-.93a4.28,4.28,0,0,1,1.82,1C126.06,280.66,126.22,281.4,126,282.46Z" transform="translate(-66.46 -252.33)"/><path class="cls-4" d="M135.19,283.12a100,100,0,0,1-3.07,11,17.05,17.05,0,0,0,2-2.33.46.46,0,0,1,.35-.22c.26,0,.29.23.1.68-.09.18-.77,1.3-2.07,3.36a25.11,25.11,0,0,0-2.16,4.18.8.8,0,0,1-.81.56,3.64,3.64,0,0,1-1.59-.56c-.43-.23-.64-.4-.64-.52a1.93,1.93,0,0,1,.27-.64,39.76,39.76,0,0,0,2.95-7.8,43.05,43.05,0,0,0,1.74-7.88c.05-.73,0-1.1-.22-1.1s-.41.18-.79.54l-1.52,1.42c-.54.49-.81.52-.81.08a.93.93,0,0,1,.22-.49,33.73,33.73,0,0,1,2.46-3.07,1.08,1.08,0,0,1,.76-.42,2.37,2.37,0,0,1,1.15.54,10.34,10.34,0,0,1,1.25.37,1.37,1.37,0,0,1,.57,1.28A6.49,6.49,0,0,1,135.19,283.12Zm3.46-10.75a.84.84,0,0,1,.39.67c0,.47-.7,1.21-2.11,2.21a3.48,3.48,0,0,1-2.7.68,3.28,3.28,0,0,1-1.28-.54,1.11,1.11,0,0,1-.25-.3.29.29,0,0,1,0-.26c.05-.07.15-.08.29-.05a29.52,29.52,0,0,0,3-2.82c.38-.43.65-.64.81-.64A5,5,0,0,1,138.65,272.37Z" transform="translate(-66.46 -252.33)"/><path class="cls-5" d="M151.7,268.5c.46.24.69.52.69.83s-.16.32-.47.32a1.45,1.45,0,0,1-.3,0l-.31,0c-.62,0-1.38.68-2.26,2a44,44,0,0,0-3.26,7.9,1.44,1.44,0,0,0-.15.64c.05.12.26.18.64.2a23.23,23.23,0,0,0,3.88-.1c.55-.05.83.19.83.71,0,.36-.21.58-.64.66s-2.15.2-5.42.45a69.36,69.36,0,0,0-3.58,14.57q0,.32,0,.57c0,.55.14.83.42.83q.66,0,4-3.21a1.08,1.08,0,0,1,.76-.4.36.36,0,0,1,.39.27.82.82,0,0,1-.22.69,37.58,37.58,0,0,1-3.9,4.47,2.29,2.29,0,0,1-1.35.76,3.44,3.44,0,0,1-1.67-.86c-.93-.25-1.4-.74-1.4-1.48a2.08,2.08,0,0,1,.05-.39A121.12,121.12,0,0,1,142,282.31c-.87-.11-1.65-.23-2.36-.34a.52.52,0,0,1-.46-.59.62.62,0,0,1,.49-.69c.33-.08.93-.26,1.81-.54a7.44,7.44,0,0,0,1.57-.73q2.63-8.13,4.13-10.53c.57-.92,1.18-1.37,1.84-1.37A6.35,6.35,0,0,1,151.7,268.5Z" transform="translate(-66.46 -252.33)"/><path class="cls-6" d="M166.67,283.46A76.72,76.72,0,0,0,163.55,294a11.59,11.59,0,0,0,1-1.06,9.58,9.58,0,0,1,.75-.83.93.93,0,0,1,.74-.44.32.32,0,0,1,.36.36,1,1,0,0,1-.19.52,19.89,19.89,0,0,0-3.07,6.89c-.15.66-.37,1-.66,1a3.7,3.7,0,0,1-1.55-.78,1.87,1.87,0,0,1-.76-.74,2.31,2.31,0,0,1,0-1.08,56.4,56.4,0,0,1,2.58-10.35,58.64,58.64,0,0,1-5.82,7.66,34.2,34.2,0,0,1-4.64,4.66,3.25,3.25,0,0,1-1.57.71,2.73,2.73,0,0,1-1.34-.71A2.43,2.43,0,0,1,148,297.6a5,5,0,0,1,.05-.62,23.62,23.62,0,0,1,3.19-8.45,34.37,34.37,0,0,1,6.31-8.13,3.15,3.15,0,0,1,2.06-1.06c.59,0,1.71.81,3.36,2.33a.55.55,0,0,1,.22.42q0,.39-.51.39a.9.9,0,0,1-.37-.07,2.73,2.73,0,0,0-2.8,0,23.12,23.12,0,0,0-5.1,6,23.78,23.78,0,0,0-3.9,8.83,2,2,0,0,0,0,.32c0,.41.17.62.49.62a3.16,3.16,0,0,0,2-1.16,64.52,64.52,0,0,0,5.89-6.72A34.07,34.07,0,0,0,163,284c.44-1.05.73-1.78.86-2.21.21-.73.44-1.1.69-1.1a4.85,4.85,0,0,1,1.72,1,1.38,1.38,0,0,1,.61.76A2.45,2.45,0,0,1,166.67,283.46Z" transform="translate(-66.46 -252.33)"/><path class="cls-7" d="M188.7,261.73a.67.67,0,0,1,.32.51c0,.31-.19.47-.56.47a1.06,1.06,0,0,1-.52-.15,4.25,4.25,0,0,0-1.69-.56c-1,0-2.16,1-3.39,3q-6.68,10.88-9.49,28.09c-.05.31-.13.73-.25,1.25.38-.39.93-1,1.67-1.91.43-.51.74-.76.93-.76.43,0,.46.25.1.76a18.94,18.94,0,0,0-3.12,7c-.18.61-.4.91-.68.91a1,1,0,0,1-.52-.22c-.83-.56-1.31-.88-1.42-1a1.72,1.72,0,0,1-.49-1.28,4.63,4.63,0,0,1,.12-.95,134.82,134.82,0,0,1,7.34-26.63c2.25-5.53,4.28-9.11,6.06-10.74a2.1,2.1,0,0,1,1.47-.67,3.45,3.45,0,0,1,1.72.84C187.1,260.39,187.9,261.05,188.7,261.73Z" transform="translate(-66.46 -252.33)"/><path class="cls-8" d="M211.1,292.37q0,4.44-4.51,7.14a3.81,3.81,0,0,1-3.36,2c-2.44,0-5.15-1.12-8.15-3.26a18.18,18.18,0,0,1-5.32-5.3,9.53,9.53,0,0,1-1.4-3,2.57,2.57,0,0,1,1.1-1.72,2.92,2.92,0,0,1,1.62-.91c.38,0,.57.25.57.74a2.86,2.86,0,0,1-.13.78,14.7,14.7,0,0,0,5.5,6.58c2.8,2,5.33,3,7.61,3,2,0,3-1.39,3-4.13q0-2.25-3.52-9t-3.52-9.68a5.65,5.65,0,0,1,1.08-3.41,15.53,15.53,0,0,1,3.19-3,1.4,1.4,0,0,1,.84-.32c.44,0,.66.19.66.56a1.15,1.15,0,0,1-.44.81,5.8,5.8,0,0,0-1.89,4.37q0,2.86,3.53,9.47C209.93,288.55,211.1,291.29,211.1,292.37Zm7.34-22.52a20.85,20.85,0,0,1-2.6,5.84c-.49.73-1,1.1-1.4,1.1a5.29,5.29,0,0,1-2.23-1.05c-.33-.22-.49-.44-.49-.67s.28-.59.86-.73c.42-.13.9-.88,1.44-2.24a8.9,8.9,0,0,0,.76-3c0-.77-.3-1.15-.9-1.15a3.85,3.85,0,0,0-.81.1,27.88,27.88,0,0,0-4.12,1.3,2.21,2.21,0,0,1-.67.12c-.49,0-.73-.16-.73-.49s.25-.59.76-.84a46.73,46.73,0,0,1,5.42-2.3,4.21,4.21,0,0,1,1.23-.32c.37,0,.86.52,1.47,1.57a10.19,10.19,0,0,1,1.69.61,1.07,1.07,0,0,1,.54,1A4.27,4.27,0,0,1,218.44,269.85Z" transform="translate(-66.46 -252.33)"/><path class="cls-9" d="M234.78,261.73a.69.69,0,0,1,.32.54c0,.29-.19.44-.56.44a1.06,1.06,0,0,1-.52-.15,4.25,4.25,0,0,0-1.69-.56c-1,0-2.11,1-3.34,3q-6.48,10.54-9.59,27.63a42.45,42.45,0,0,1,9.15-12.27,3.17,3.17,0,0,1,1.62-1,5.89,5.89,0,0,1,1.23.68,9.69,9.69,0,0,1,1.47.69,2.55,2.55,0,0,1,.64,2c0,.27,0,.55,0,.86A49.16,49.16,0,0,1,231,294.14c.51-.69,1.31-1.69,2.41-3a1,1,0,0,1,.66-.42c.18,0,.27.11.27.32a1.48,1.48,0,0,1-.32.84q-1.42,2.06-3.78,6c-.13.26-.45.95-.95,2.06-.22.53-.51.79-.89.79a3.8,3.8,0,0,1-1.84-.86c-.32-.23-.38-.59-.17-1.08q4.23-10.6,4.47-15.83c.05-1-.09-1.49-.42-1.49a3.49,3.49,0,0,0-1.35.83,28.29,28.29,0,0,0-4.64,5.4,45.56,45.56,0,0,0-5.62,10.43c-.36,1-.69,1.52-1,1.52a4,4,0,0,1-1.65-1,1.74,1.74,0,0,1-.41-1.71,132.34,132.34,0,0,1,7.41-26.63q3.38-8.22,6.11-10.74a2,2,0,0,1,1.35-.64,3.23,3.23,0,0,1,1.74.78Z" transform="translate(-66.46 -252.33)"/><path class="cls-10" d="M252,284.27a25.28,25.28,0,0,1-1.06,5.79,21.24,21.24,0,0,1-4.51,8.84,4.63,4.63,0,0,1-3.44,1.67,7.56,7.56,0,0,1-1.89-.32,6,6,0,0,1-3.75-1.45,4.41,4.41,0,0,1-1.47-3.66,25.77,25.77,0,0,1,1.79-7.26,23.13,23.13,0,0,1,3.87-7.31c.64-.72,1.17-1.08,1.58-1.08s1.45.57,2.69,1.72c.35-.17,1-.47,2.11-.91a4.29,4.29,0,0,1,1.23-.27c.64,0,1.35.6,2.14,1.79A4,4,0,0,1,252,284.27Zm-2.82.72c.11-1.1.17-1.8.17-2.09,0-.69-.22-1-.64-1a2.57,2.57,0,0,0-.64.1l-3.8,1.54a4.35,4.35,0,0,1-.76.27c-.13,0-.26-.15-.39-.46a17.73,17.73,0,0,0-2.65,5A27.55,27.55,0,0,0,239.1,293a13.1,13.1,0,0,0-.27,2.5q0,3.78,2.33,3.68a3.87,3.87,0,0,0,2-.73c1.38-.93,2.66-2.8,3.86-5.6A26.58,26.58,0,0,0,249.14,285Z" transform="translate(-66.46 -252.33)"/><path class="cls-11" d="M272.52,284.69a30.1,30.1,0,0,1-2.18,8.91q-1.77,4.44-3.49,6.06a3,3,0,0,1-2,.91c-.75,0-2-.61-3.75-1.82-.34-.23-.51-.47-.51-.71s.22-.47.66-.47a2.58,2.58,0,0,1,.78.18,3,3,0,0,0,.84.17c1.19,0,2.26-.76,3.21-2.29a25.08,25.08,0,0,0,2.28-5.27,20,20,0,0,0,1.13-7.09c-.05-.95-.37-1.42-1-1.42a3.14,3.14,0,0,0-1.91,1.07,41.71,41.71,0,0,0-11.19,18.19A65,65,0,0,0,253,312.25q0,.17-.66,8.51c-.07.8-.27,1.2-.59,1.2s-1-.4-1.84-1.2a2.25,2.25,0,0,1-.74-2.16,125.93,125.93,0,0,1,5.91-27.21q3.81-11.73,6-15.21c.88-1.36,1.67-2,2.36-2s2,.63,3.92,1.84c.26.16.39.34.39.52s-.19.36-.58.36a3.36,3.36,0,0,1-.5-.06,3.19,3.19,0,0,0-.51-.06c-1,0-2.1.88-3.21,2.63a32.75,32.75,0,0,0-2.48,5,53.64,53.64,0,0,0-2.16,5.81,44.14,44.14,0,0,1,8.39-10.11,2.17,2.17,0,0,1,1.32-.64,4.13,4.13,0,0,1,1.35.74Q272.75,281.44,272.52,284.69Z" transform="translate(-66.46 -252.33)"/><path class="cls-12" d="M97.82,270a46,46,0,0,1-3.68,12.29,51.64,51.64,0,0,1-5.89,10.3c-2.16,2.85-3.89,4.29-5.2,4.3-1.62,0-3.93-1-6.92-3a.68.68,0,0,1-.34-.56c0-.52.3-.79.9-.79a1.09,1.09,0,0,1,.49.13,8.41,8.41,0,0,0,4.08,1.27q3.06.15,7.85-9t5.49-16.12q.25-2.28-2.45-3.39a2.59,2.59,0,0,0-1.1-.2,23.2,23.2,0,0,0-9.15,3.44q-2.31,5.49-4.67,13a133.78,133.78,0,0,0-3.73,14.19c-.16.81-.5,1.22-1,1.22a1.65,1.65,0,0,1-.68-.17,6.78,6.78,0,0,1-1.67-1.08,2.13,2.13,0,0,1-.54-1.54,22.6,22.6,0,0,1,.66-4.94c.11-.47.29-.71.52-.71a5.25,5.25,0,0,1,1.69,1.13q3.33-11.36,6.33-19.46a42.15,42.15,0,0,0-8.44,6.63,2.56,2.56,0,0,0-.69,1.77,4.69,4.69,0,0,0,.59,2.06,6.8,6.8,0,0,1,.59,1.32q0,.42-.57.42a.94.94,0,0,1-.73-.27q-3.07-3.61-3.07-5c0-1,.66-2,2-3.22a72.41,72.41,0,0,1,12-8.29c.86-2,1.49-3,1.89-3s.9.44,1.81,1.32l2.7-1.22a4.85,4.85,0,0,1,1.84-.49,6.4,6.4,0,0,1,3.17,1.32.45.45,0,0,1,.32-.1q1.36,0,4.19,2.55a4.07,4.07,0,0,1,1.52,3A6.33,6.33,0,0,1,97.82,270Z" transform="translate(-66.46 -252.33)"/><path class="cls-12" d="M104.08,279.62a100,100,0,0,1-3.07,11,17.05,17.05,0,0,0,2-2.33.46.46,0,0,1,.35-.22c.26,0,.29.23.09.68-.08.19-.77,1.31-2.06,3.37a24.68,24.68,0,0,0-2.16,4.17.8.8,0,0,1-.81.56,3.64,3.64,0,0,1-1.59-.56c-.43-.23-.64-.4-.64-.52a1.93,1.93,0,0,1,.27-.64,39.88,39.88,0,0,0,2.94-7.8,42.54,42.54,0,0,0,1.75-7.87c0-.74,0-1.11-.22-1.11s-.41.18-.79.54l-1.52,1.42c-.54.49-.81.52-.81.08a.86.86,0,0,1,.22-.49,37,37,0,0,1,2.45-3.07,1.11,1.11,0,0,1,.77-.42,2.37,2.37,0,0,1,1.15.54,10.34,10.34,0,0,1,1.25.37,1.37,1.37,0,0,1,.56,1.28A6.37,6.37,0,0,1,104.08,279.62Zm3.46-10.74a.81.81,0,0,1,.39.66c0,.47-.71,1.21-2.11,2.21a3.48,3.48,0,0,1-2.7.68,3,3,0,0,1-1.28-.54,1,1,0,0,1-.25-.3.29.29,0,0,1,0-.26c0-.07.15-.08.29-.05a29.52,29.52,0,0,0,3-2.82c.38-.43.65-.64.81-.64A5,5,0,0,1,107.54,268.88Z" transform="translate(-66.46 -252.33)"/><path class="cls-12" d="M123.57,275.88Q116,315,104,314.94q-4.33,0-9.4-4.78a1.27,1.27,0,0,1-.46-.91c0-.47.22-.71.66-.71a1,1,0,0,1,.66.27q4,3.4,7.17,3.41,10.11,0,16.85-29.69a51.36,51.36,0,0,1-7.14,10.09,3.35,3.35,0,0,1-2.18,1.25,3.94,3.94,0,0,1-2.18-1,3.75,3.75,0,0,1-2.24-3.78,21.43,21.43,0,0,1,2.48-8,24.67,24.67,0,0,1,4.76-7,4,4,0,0,1,2.53-1.33,3.24,3.24,0,0,1,1.84.74l2,1.74a.89.89,0,0,1,.37.64c0,.3-.2.44-.59.44a1.94,1.94,0,0,1-.83-.22,3.1,3.1,0,0,0-1.45-.39,2.72,2.72,0,0,0-1.87.74,19.27,19.27,0,0,0-3.75,5.1,22,22,0,0,0-2.63,7.07,11,11,0,0,0-.12,1.49c0,1.21.33,1.82,1,1.82a2.14,2.14,0,0,0,1.4-.66,29.91,29.91,0,0,0,5.79-7.24,36.06,36.06,0,0,0,3.81-8,8.29,8.29,0,0,0,.41-2.47c0-.63.15-.94.45-.94a4.45,4.45,0,0,1,1.81,1C123.62,274.08,123.78,274.82,123.57,275.88Z" transform="translate(-66.46 -252.33)"/><path class="cls-12" d="M132.75,276.54a97.75,97.75,0,0,1-3.07,11,16.44,16.44,0,0,0,2-2.33A.46.46,0,0,1,132,285c.26,0,.29.23.1.69-.09.18-.77,1.3-2.07,3.36a24.68,24.68,0,0,0-2.16,4.17.78.78,0,0,1-.8.56,3.51,3.51,0,0,1-1.6-.56c-.43-.23-.64-.4-.64-.52a1.91,1.91,0,0,1,.27-.63,40.18,40.18,0,0,0,2.95-7.81,43.17,43.17,0,0,0,1.74-7.87c.05-.74,0-1.11-.22-1.11s-.41.18-.79.54l-1.52,1.43c-.54.49-.81.51-.81.07a.93.93,0,0,1,.22-.49,35.16,35.16,0,0,1,2.46-3.07,1.08,1.08,0,0,1,.76-.42,2.37,2.37,0,0,1,1.15.54,10.34,10.34,0,0,1,1.25.37,1.38,1.38,0,0,1,.57,1.28A6.49,6.49,0,0,1,132.75,276.54Zm3.46-10.74a.81.81,0,0,1,.39.66c0,.47-.7,1.21-2.11,2.21a3.45,3.45,0,0,1-2.7.69,3.18,3.18,0,0,1-1.27-.54,1,1,0,0,1-.26-.31.29.29,0,0,1,0-.26c.05-.06.15-.08.3-.05a30.23,30.23,0,0,0,3-2.82c.38-.43.65-.64.81-.64A5,5,0,0,1,136.21,265.8Z" transform="translate(-66.46 -252.33)"/><path class="cls-12" d="M149.26,261.92c.46.25.69.52.69.83s-.16.32-.47.32l-.3,0a1.61,1.61,0,0,0-.31,0c-.62,0-1.38.68-2.26,2a43.69,43.69,0,0,0-3.26,7.9,1.42,1.42,0,0,0-.15.64c.05.11.26.18.64.19a23.23,23.23,0,0,0,3.88-.1c.55-.05.83.19.83.71,0,.36-.21.59-.64.67s-2.15.19-5.42.44a69.36,69.36,0,0,0-3.58,14.57c0,.22,0,.4,0,.57,0,.55.14.83.42.83q.66,0,4-3.21a1.1,1.1,0,0,1,.76-.39.36.36,0,0,1,.39.27.81.81,0,0,1-.22.68,37.58,37.58,0,0,1-3.9,4.47A2.23,2.23,0,0,1,139,294a3.44,3.44,0,0,1-1.67-.86c-.93-.25-1.4-.74-1.4-1.47a1.89,1.89,0,0,1,.05-.39,120.84,120.84,0,0,1,3.56-15.59c-.87-.11-1.65-.22-2.36-.34a.51.51,0,0,1-.46-.59.63.63,0,0,1,.49-.69c.33-.08.93-.26,1.81-.53a7.8,7.8,0,0,0,1.58-.74c1.75-5.42,3.12-8.92,4.12-10.53.57-.91,1.18-1.37,1.84-1.37A6.49,6.49,0,0,1,149.26,261.92Z" transform="translate(-66.46 -252.33)"/><path class="cls-12" d="M164.23,276.89a77.67,77.67,0,0,0-3.12,10.5,11.59,11.59,0,0,0,1-1.06,9.58,9.58,0,0,1,.75-.83,1,1,0,0,1,.74-.44.32.32,0,0,1,.36.37,1,1,0,0,1-.19.51,19.93,19.93,0,0,0-3.07,6.9c-.15.65-.37,1-.66,1a3.64,3.64,0,0,1-1.55-.79,1.93,1.93,0,0,1-.76-.73,2.31,2.31,0,0,1,0-1.08,56.32,56.32,0,0,1,2.58-10.36,57.76,57.76,0,0,1-5.82,7.66,34.29,34.29,0,0,1-4.63,4.66,3.31,3.31,0,0,1-1.58.71,2.73,2.73,0,0,1-1.34-.71,2.4,2.4,0,0,1-1.3-2.16,4.66,4.66,0,0,1,0-.61,23.66,23.66,0,0,1,3.19-8.46,34.37,34.37,0,0,1,6.31-8.13,3.1,3.1,0,0,1,2.06-1.05c.59,0,1.71.81,3.36,2.33a.55.55,0,0,1,.22.41c0,.27-.17.4-.51.4a.91.91,0,0,1-.37-.08,2.73,2.73,0,0,0-2.8.05,23.29,23.29,0,0,0-5.1,6,23.81,23.81,0,0,0-3.9,8.84,1.82,1.82,0,0,0,0,.32c0,.41.17.61.49.61a3.14,3.14,0,0,0,2-1.15,65.79,65.79,0,0,0,5.89-6.73,33.42,33.42,0,0,0,4.12-6.33c.44-1,.73-1.78.86-2.21.21-.73.44-1.1.69-1.1a4.87,4.87,0,0,1,1.72,1,1.32,1.32,0,0,1,.61.76A2.47,2.47,0,0,1,164.23,276.89Z" transform="translate(-66.46 -252.33)"/><path class="cls-12" d="M186.26,255.15a.64.64,0,0,1,.32.51c0,.31-.19.47-.56.47a1.06,1.06,0,0,1-.52-.15,4.37,4.37,0,0,0-1.69-.56q-1.55,0-3.39,3-6.67,10.88-9.49,28.1c-.05.31-.13.72-.25,1.25.38-.4.93-1,1.67-1.92.43-.5.74-.76.93-.76.43,0,.46.26.1.76a18.8,18.8,0,0,0-3.11,7.05c-.19.6-.41.9-.69.9a1,1,0,0,1-.52-.22c-.83-.55-1.31-.88-1.42-1a1.71,1.71,0,0,1-.49-1.27,4.64,4.64,0,0,1,.12-1,134.51,134.51,0,0,1,7.34-26.62c2.25-5.53,4.28-9.12,6.06-10.75a2,2,0,0,1,1.47-.66,3.33,3.33,0,0,1,1.72.83Z" transform="translate(-66.46 -252.33)"/><path class="cls-12" d="M208.66,285.79q0,4.45-4.51,7.14a3.84,3.84,0,0,1-3.36,2c-2.44,0-5.15-1.12-8.15-3.27a18.06,18.06,0,0,1-5.32-5.3,9.43,9.43,0,0,1-1.4-3,2.57,2.57,0,0,1,1.1-1.72,3,3,0,0,1,1.62-.91c.38,0,.57.25.57.74a2.93,2.93,0,0,1-.13.79,14.73,14.73,0,0,0,5.5,6.57c2.8,2,5.33,3,7.61,3q3,0,3-4.12,0-2.26-3.52-9t-3.52-9.68a5.68,5.68,0,0,1,1.08-3.41,16.11,16.11,0,0,1,3.19-3,1.4,1.4,0,0,1,.84-.32q.66,0,.66.57a1.18,1.18,0,0,1-.44.81,5.78,5.78,0,0,0-1.89,4.36q0,2.88,3.53,9.47C207.49,282,208.66,284.71,208.66,285.79ZM216,263.27a20.72,20.72,0,0,1-2.6,5.84c-.49.74-1,1.1-1.4,1.1a5.29,5.29,0,0,1-2.23-1c-.33-.21-.49-.43-.49-.66s.28-.59.86-.74c.42-.13.9-.88,1.44-2.23a9.07,9.07,0,0,0,.77-3c0-.76-.31-1.15-.91-1.15a3.85,3.85,0,0,0-.81.1,29.23,29.23,0,0,0-4.12,1.3,2.21,2.21,0,0,1-.67.12c-.49,0-.73-.16-.73-.49s.25-.59.76-.83a45.16,45.16,0,0,1,5.42-2.31,4.21,4.21,0,0,1,1.23-.32c.37,0,.86.53,1.47,1.57a9.86,9.86,0,0,1,1.69.62,1.06,1.06,0,0,1,.54,1A4.27,4.27,0,0,1,216,263.27Z" transform="translate(-66.46 -252.33)"/><path class="cls-12" d="M232.34,255.15a.66.66,0,0,1,.32.54c0,.29-.19.44-.56.44a1.06,1.06,0,0,1-.52-.15,4.37,4.37,0,0,0-1.69-.56q-1.5,0-3.34,3Q220.07,269,217,286a42.45,42.45,0,0,1,9.15-12.27,3.25,3.25,0,0,1,1.62-1,5.68,5.68,0,0,1,1.23.69,11.58,11.58,0,0,1,1.47.68,2.56,2.56,0,0,1,.64,2c0,.26,0,.55,0,.86a49.6,49.6,0,0,1-2.5,10.57c.5-.69,1.3-1.69,2.4-3a1.07,1.07,0,0,1,.66-.41c.18,0,.27.1.27.31a1.48,1.48,0,0,1-.32.84c-.95,1.37-2.21,3.39-3.78,6-.13.26-.45.94-.95,2.06-.22.52-.51.78-.89.78a3.7,3.7,0,0,1-1.84-.86c-.32-.23-.38-.59-.17-1.08q4.23-10.59,4.47-15.82.07-1.5-.42-1.5a3.49,3.49,0,0,0-1.35.83,28.62,28.62,0,0,0-4.64,5.4,45.33,45.33,0,0,0-5.61,10.43c-.37,1-.7,1.52-1,1.52a3.88,3.88,0,0,1-1.65-1,1.77,1.77,0,0,1-.41-1.72,132.89,132.89,0,0,1,7.41-26.62q3.38-8.22,6.11-10.75a2,2,0,0,1,1.35-.64,3.16,3.16,0,0,1,1.74.79Z" transform="translate(-66.46 -252.33)"/><path class="cls-12" d="M249.52,277.7a25.46,25.46,0,0,1-1.06,5.79,21.08,21.08,0,0,1-4.51,8.83,4.63,4.63,0,0,1-3.44,1.67,7.56,7.56,0,0,1-1.89-.32,6,6,0,0,1-3.75-1.45,4.39,4.39,0,0,1-1.47-3.65,25.74,25.74,0,0,1,1.79-7.27,23.13,23.13,0,0,1,3.87-7.31c.64-.72,1.17-1.08,1.58-1.08s1.45.58,2.69,1.72c.35-.16,1-.47,2.11-.91a4.29,4.29,0,0,1,1.23-.27c.64,0,1.35.6,2.14,1.79A4.05,4.05,0,0,1,249.52,277.7Zm-2.82.71c.11-1.1.17-1.79.17-2.09,0-.68-.22-1-.64-1a3.15,3.15,0,0,0-.64.1l-3.8,1.55a4.35,4.35,0,0,1-.76.27c-.13,0-.26-.16-.39-.47a17.73,17.73,0,0,0-2.65,5,28.1,28.1,0,0,0-1.33,4.61,13.12,13.12,0,0,0-.27,2.51c0,2.52.78,3.74,2.33,3.68a3.9,3.9,0,0,0,2-.74c1.38-.93,2.66-2.8,3.86-5.59A26.73,26.73,0,0,0,246.7,278.41Z" transform="translate(-66.46 -252.33)"/><path class="cls-12" d="M270.08,278.11A30.1,30.1,0,0,1,267.9,287q-1.77,4.44-3.49,6.06a2.9,2.9,0,0,1-2,.91c-.75,0-2-.61-3.75-1.82-.34-.23-.51-.46-.51-.71s.22-.46.66-.46a2.5,2.5,0,0,1,.78.17,3,3,0,0,0,.84.17q1.79,0,3.21-2.28a25.43,25.43,0,0,0,2.28-5.28,20,20,0,0,0,1.13-7.09c-.05-.95-.37-1.42-.95-1.42a3.11,3.11,0,0,0-1.92,1.08A41.62,41.62,0,0,0,253,294.53a65.24,65.24,0,0,0-2.45,11.14q0,.16-.66,8.51c-.07.8-.27,1.21-.59,1.21s-1-.41-1.84-1.21a2.25,2.25,0,0,1-.74-2.16,126.06,126.06,0,0,1,5.91-27.21q3.81-11.73,6-15.21c.88-1.36,1.67-2,2.36-2s2,.63,3.92,1.84c.26.17.39.34.39.52s-.19.37-.58.37a2.43,2.43,0,0,1-.49-.07,3.41,3.41,0,0,0-.52-.06c-1,0-2.1.88-3.21,2.63a34.24,34.24,0,0,0-2.48,5,53.64,53.64,0,0,0-2.16,5.81,43.87,43.87,0,0,1,8.39-10.1,2.11,2.11,0,0,1,1.32-.64,4,4,0,0,1,1.35.73Q270.31,274.85,270.08,278.11Z" transform="translate(-66.46 -252.33)"/></svg>